<svg width="382" height="60" viewBox="0 0 382 60" fill="none" xmlns="http://www.w3.org/2000/svg">
<path d="M0.200195 44.3271V42.4024C1.67776 42.3246 2.68873 41.9941 3.2331 41.4108C3.77747 40.7887 4.06909 39.9527 4.10798 38.9028C4.18574 37.8141 4.22463 36.5893 4.22463 35.2284V10.0319C4.22463 9.25425 4.24407 8.51546 4.28295 7.81556C4.32184 7.07678 4.36072 6.41576 4.3996 5.83251C3.6997 5.87139 2.9998 5.91028 2.2999 5.94916C1.6 5.98805 0.900097 6.02693 0.200195 6.06581V3.49951C2.37767 3.46062 4.57458 3.42174 6.79093 3.38286C9.04617 3.34397 11.3014 3.36342 13.5566 3.44118C17.3283 3.48006 20.3612 3.92722 22.6554 4.78266C24.9884 5.59921 26.6992 6.78515 27.788 8.34049C28.8767 9.85694 29.4211 11.7039 29.4211 13.8814C29.46 15.3978 29.1683 16.9532 28.5462 18.5474C27.9629 20.1027 26.8742 21.5025 25.28 22.7468C23.7247 23.9911 21.4694 24.9243 18.5143 25.5464C19.2919 26.0908 19.9724 26.7907 20.5557 27.6461C21.1389 28.5015 21.7999 29.4931 22.5387 30.6207L26.5048 36.8615C27.1658 37.9113 27.8074 38.864 28.4295 39.7194C29.0517 40.5359 29.771 41.197 30.5876 41.7024C31.4041 42.1691 32.4151 42.4024 33.6205 42.4024V44.3271H26.2715C25.1439 43.3161 24.1913 42.3051 23.4136 41.2942C22.6748 40.2832 21.8971 39.1361 21.0806 37.853L17.1728 31.6122C16.6673 30.7957 16.0841 29.8625 15.423 28.8126C14.8009 27.7239 14.0816 26.8101 13.265 26.0713C12.6429 26.1102 11.9819 26.1296 11.282 26.1296C10.6209 26.1296 9.95993 26.1102 9.29891 26.0713V37.3864C9.29891 38.4362 9.27947 39.35 9.24059 40.1277C9.24059 40.8665 9.2017 41.4886 9.12393 41.9941C9.59054 41.9552 10.0571 41.9357 10.5237 41.9357C10.9903 41.8969 11.4569 41.858 11.9235 41.8191C12.3901 41.7802 12.8567 41.7608 13.3233 41.7608V44.3271H0.200195ZM12.9151 23.9133C15.0537 23.8355 16.9201 23.4856 18.5143 22.8634C20.1474 22.2413 21.4305 21.2498 22.3637 19.8889C23.2969 18.5279 23.7635 16.7393 23.7635 14.5229C23.7635 13.0454 23.5497 11.7622 23.122 10.6735C22.7331 9.54587 22.111 8.61268 21.2556 7.87389C20.4001 7.1351 19.3114 6.59073 17.9894 6.24078C16.6673 5.85195 15.112 5.65753 13.3233 5.65753C11.8847 5.65753 10.8737 5.94916 10.2904 6.53241C9.74607 7.11566 9.435 7.93222 9.35724 8.98207C9.31835 9.99303 9.29891 11.1984 9.29891 12.5982V23.7966C9.92105 23.8355 10.5043 23.8744 11.0487 23.9133C11.6319 23.9522 12.254 23.9522 12.9151 23.9133Z" fill="black"/>
<path d="M50.2486 45.2603C47.5268 45.2603 45.0577 44.6381 42.8413 43.3939C40.625 42.1107 38.8558 40.361 37.5337 38.1446C36.2506 35.8894 35.609 33.3231 35.609 30.4457C35.609 27.3739 36.2506 24.6132 37.5337 22.1635C38.8169 19.7139 40.5666 17.7892 42.783 16.3894C44.9993 14.9507 47.4879 14.2313 50.2486 14.2313C52.9704 14.2313 55.4395 14.8923 57.6559 16.2144C59.8722 17.4975 61.6414 19.2473 62.9635 21.4636C64.2855 23.68 64.9465 26.2074 64.9465 29.0459C64.9465 32.0399 64.2855 34.7812 62.9635 37.2697C61.6803 39.7194 59.9306 41.6636 57.7142 43.1023C55.4979 44.5409 53.0093 45.2603 50.2486 45.2603ZM50.7152 42.9273C52.776 42.9273 54.4091 42.344 55.6145 41.1775C56.8199 40.011 57.6753 38.4946 58.1808 36.6282C58.7252 34.7618 58.9974 32.7982 58.9974 30.7373C58.9974 28.9876 58.8224 27.2767 58.4724 25.6047C58.1614 23.8939 57.6559 22.358 56.956 20.997C56.2561 19.5972 55.3423 18.4891 54.2147 17.6725C53.126 16.856 51.8039 16.4477 50.2486 16.4477C48.2267 16.4477 46.5741 17.0309 45.291 18.1974C44.0078 19.3639 43.0552 20.8804 42.433 22.7468C41.8498 24.6132 41.5582 26.6157 41.5582 28.7543C41.5582 31.165 41.8887 33.4592 42.5497 35.6366C43.2107 37.7752 44.2217 39.525 45.5826 40.8859C46.9435 42.2468 48.6544 42.9273 50.7152 42.9273Z" fill="black"/>
<path d="M87.6327 44.3271C87.5161 43.6661 87.4383 43.0828 87.3994 42.5773C87.3605 42.0718 87.3022 41.5469 87.2244 41.0025C85.9024 42.3246 84.4637 43.3744 82.9084 44.1521C81.3919 44.8909 79.7783 45.2603 78.0674 45.2603C75.1122 45.2603 72.9153 44.5993 71.4767 43.2772C70.038 41.9163 69.3186 40.2638 69.3186 38.3196C69.3186 36.531 69.863 34.9951 70.9517 33.7119C72.0793 32.3899 73.518 31.3206 75.2678 30.504C77.0564 29.6486 78.9811 29.0265 81.042 28.6376C83.1417 28.2099 85.1636 28.0155 87.1078 28.0544V24.4382C87.1078 23.0773 86.9911 21.7941 86.7578 20.5888C86.5245 19.3834 86.019 18.3918 85.2414 17.6142C84.4637 16.8365 83.2194 16.4282 81.5086 16.3894C80.3809 16.3505 79.2144 16.5643 78.0091 17.0309C76.8426 17.4975 75.9871 18.2946 75.4428 19.4223C75.7538 19.7333 75.9482 20.1027 76.026 20.5304C76.1427 20.9193 76.201 21.2887 76.201 21.6386C76.201 22.1052 76.0066 22.6496 75.6177 23.2717C75.2289 23.855 74.5484 24.1271 73.5764 24.0883C72.7598 24.0883 72.1377 23.8161 71.71 23.2717C71.2822 22.6885 71.0684 22.008 71.0684 21.2303C71.0684 19.9083 71.5544 18.7224 72.5265 17.6725C73.5375 16.6227 74.9178 15.7867 76.6676 15.1645C78.4173 14.5424 80.4004 14.2313 82.6167 14.2313C85.8829 14.2313 88.2937 15.1062 89.8491 16.856C91.4044 18.5668 92.1626 21.2887 92.1237 25.0215C92.1237 26.4602 92.1237 27.9183 92.1237 29.3959C92.1237 30.8345 92.1043 32.2927 92.0654 33.7702C92.0654 35.2089 92.0654 36.667 92.0654 38.1446C92.0654 38.7667 92.046 39.3889 92.0071 40.011C91.9682 40.6332 91.9099 41.3331 91.8321 42.1107C92.532 42.0718 93.2125 42.033 93.8735 41.9941C94.5734 41.9552 95.2733 41.9163 95.9732 41.8774V44.3271H87.6327ZM87.1078 30.0374C85.7857 30.0763 84.3859 30.2513 82.9084 30.5624C81.4697 30.8345 80.1282 31.2623 78.8839 31.8455C77.6786 32.4288 76.687 33.2064 75.9094 34.1785C75.1706 35.1117 74.8206 36.2588 74.8595 37.6197C74.9373 39.0584 75.4039 40.1471 76.2593 40.8859C77.1536 41.5858 78.2035 41.9357 79.4089 41.9357C81.0031 41.9357 82.3834 41.6441 83.5499 41.0609C84.7553 40.4387 85.9413 39.5833 87.1078 38.4946C87.0689 38.0669 87.0495 37.6003 87.0495 37.0948C87.0495 36.5893 87.0495 36.0644 87.0495 35.52C87.0495 35.3256 87.0495 34.7034 87.0495 33.6536C87.0883 32.6037 87.1078 31.3983 87.1078 30.0374Z" fill="black"/>
<path d="M112.457 45.2603C110.085 45.2603 107.947 44.677 106.042 43.5105C104.136 42.3051 102.62 40.5943 101.492 38.3779C100.403 36.1616 99.8591 33.5564 99.8591 30.5624C99.8591 27.3739 100.501 24.5549 101.784 22.1052C103.067 19.6556 104.836 17.7308 107.091 16.331C109.386 14.9312 111.971 14.2313 114.849 14.2313C116.132 14.2313 117.396 14.4063 118.64 14.7563C119.923 15.0673 120.934 15.4367 121.673 15.8644V7.87389C121.673 7.25176 121.673 6.6685 121.673 6.12414C121.712 5.54089 121.77 4.86043 121.848 4.08276C121.148 4.12164 120.448 4.16053 119.748 4.19941C119.087 4.23829 118.406 4.27717 117.707 4.31606V1.8664C119.417 1.8664 120.739 1.78864 121.673 1.6331C122.606 1.47757 123.306 1.28315 123.772 1.04985C124.278 0.816551 124.667 0.563809 124.939 0.291624H126.63V38.1446C126.63 38.7667 126.611 39.3889 126.572 40.011C126.533 40.6332 126.475 41.3331 126.397 42.1107C127.097 42.0718 127.777 42.033 128.438 41.9941C129.138 41.9552 129.838 41.9163 130.538 41.8774V44.3271H122.198C122.081 43.7438 121.984 43.2189 121.906 42.7523C121.867 42.2468 121.828 41.7608 121.789 41.2942C120.701 42.4996 119.359 43.4716 117.765 44.2104C116.171 44.9103 114.401 45.2603 112.457 45.2603ZM114.557 42.4024C115.84 42.4024 117.123 42.033 118.406 41.2942C119.729 40.5554 120.817 39.6416 121.673 38.5529C121.634 38.0863 121.614 37.6003 121.614 37.0948C121.614 36.5504 121.614 35.9671 121.614 35.345L121.673 18.5474C120.739 17.8475 119.709 17.342 118.581 17.0309C117.493 16.681 116.365 16.506 115.199 16.506C113.254 16.506 111.563 17.0698 110.124 18.1974C108.686 19.3251 107.597 20.8998 106.858 22.9218C106.119 24.9437 105.789 27.3156 105.867 30.0374C105.944 32.4093 106.314 34.5285 106.975 36.3949C107.675 38.2613 108.647 39.7388 109.891 40.8276C111.174 41.8774 112.73 42.4024 114.557 42.4024Z" fill="black"/>
<path d="M145.514 45.2603C144.62 45.2603 143.706 45.1242 142.773 44.852C141.84 44.6187 140.965 44.1327 140.149 43.3939C139.371 42.6551 138.749 41.5858 138.282 40.186C137.816 38.7473 137.582 36.8615 137.582 34.5285L137.699 17.6142L133.208 17.6725V15.1645C134.219 15.1256 135.249 14.7562 136.299 14.0563C137.349 13.3176 138.282 12.326 139.099 11.0818C139.954 9.8375 140.537 8.47658 140.848 6.99901H142.831V15.1645H152.63V17.4392L142.831 17.5559L142.715 33.7702C142.715 35.52 142.851 37.017 143.123 38.2613C143.434 39.4667 143.92 40.3804 144.581 41.0025C145.242 41.6247 146.098 41.9357 147.148 41.9357C148.236 41.9357 149.247 41.6247 150.18 41.0025C151.153 40.3804 152.008 39.525 152.747 38.4362L154.322 39.7194C153.466 41.0025 152.611 42.0135 151.755 42.7523C150.939 43.4911 150.142 44.0355 149.364 44.3854C148.586 44.7742 147.867 45.0075 147.206 45.0853C146.545 45.202 145.981 45.2603 145.514 45.2603Z" fill="black"/>
<path d="M157.105 42.5773C158.31 42.5773 159.146 42.2857 159.613 41.7024C160.079 41.0803 160.351 40.2443 160.429 39.1945C160.507 38.1057 160.546 36.8615 160.546 35.4617V22.1635C160.546 21.5414 160.546 20.9193 160.546 20.2971C160.585 19.675 160.663 19.0334 160.779 18.3724C160.079 18.4113 159.379 18.4502 158.68 18.4891C158.018 18.4891 157.338 18.5085 156.638 18.5474V16.1561H158.446C160.118 16.1561 161.265 16.0005 161.887 15.6895C162.548 15.3395 163.093 14.9701 163.52 14.5813H165.212C165.29 15.2034 165.348 15.9811 165.387 16.9143C165.426 17.8086 165.465 18.9557 165.504 20.3555C166.087 19.3834 166.884 18.4307 167.895 17.4975C168.906 16.5643 170.033 15.7867 171.278 15.1645C172.561 14.5424 173.902 14.2313 175.302 14.2313C176.391 14.2313 177.344 14.523 178.16 15.1062C178.977 15.6895 179.385 16.6227 179.385 17.9058C179.385 18.2169 179.288 18.6057 179.093 19.0723C178.899 19.5 178.588 19.8889 178.16 20.2388C177.732 20.5499 177.169 20.7054 176.469 20.7054C175.613 20.6665 174.933 20.336 174.427 19.7139C173.922 19.0529 173.727 18.2946 173.844 17.4392C172.872 17.4003 171.861 17.6531 170.811 18.1974C169.8 18.7418 168.848 19.5 167.953 20.4721C167.059 21.4053 166.262 22.5135 165.562 23.7966L165.62 38.1446C165.62 38.9223 165.601 39.6222 165.562 40.2443C165.562 40.8276 165.504 41.4497 165.387 42.1107C166.009 42.0718 166.612 42.0524 167.195 42.0524C167.817 42.0135 168.439 41.9746 169.061 41.9357V44.3271H157.105V42.5773Z" fill="black"/>
<path d="M182.337 42.5773C183.543 42.5773 184.379 42.2857 184.845 41.7024C185.312 41.0803 185.584 40.2443 185.662 39.1945C185.739 38.1057 185.778 36.8615 185.778 35.4617V22.1635C185.778 21.5414 185.798 20.9582 185.837 20.4138C185.876 19.8305 185.934 19.1501 186.012 18.3724C185.312 18.4113 184.612 18.4502 183.912 18.4891C183.251 18.5279 182.57 18.5668 181.871 18.6057V16.1561C183.581 16.1561 184.903 16.0783 185.837 15.9228C186.77 15.7672 187.47 15.5728 187.936 15.3395C188.442 15.1062 188.831 14.8535 189.103 14.5813H190.794V38.1446C190.794 38.9223 190.775 39.6222 190.736 40.2443C190.736 40.8276 190.678 41.4497 190.561 42.1107C191.183 42.0718 191.786 42.0524 192.369 42.0524C192.991 42.0135 193.613 41.9746 194.235 41.9357V44.3271H182.337V42.5773ZM187.995 8.80709C187.178 8.80709 186.459 8.47658 185.837 7.81556C185.215 7.15455 184.903 6.338 184.903 5.36591C184.903 4.39383 185.215 3.57727 185.837 2.91625C186.498 2.21635 187.236 1.8664 188.053 1.8664C188.947 1.8664 189.686 2.21635 190.269 2.91625C190.892 3.57727 191.203 4.39383 191.203 5.36591C191.203 6.338 190.872 7.15455 190.211 7.81556C189.589 8.47658 188.85 8.80709 187.995 8.80709Z" fill="black"/>
<path d="M198.216 59.2V57.4502C199.422 57.4502 200.258 57.1392 200.724 56.517C201.191 55.9338 201.463 55.0978 201.541 54.009C201.618 52.9592 201.657 51.7344 201.657 50.3346L201.774 22.1635C201.774 21.5414 201.774 20.9193 201.774 20.2971C201.813 19.675 201.891 19.0334 202.007 18.3724C201.307 18.4113 200.608 18.4502 199.908 18.4891C199.247 18.5279 198.566 18.5668 197.866 18.6057V16.1561C199.577 16.1561 200.86 16.0783 201.716 15.9228C202.61 15.7672 203.252 15.5728 203.64 15.3395C204.068 15.1062 204.418 14.8535 204.69 14.5813H206.44C206.479 14.9701 206.518 15.4367 206.557 15.9811C206.596 16.4866 206.634 17.0698 206.673 17.7308C207.84 16.681 209.22 15.845 210.814 15.2229C212.447 14.5618 214.081 14.2313 215.714 14.2313C217.969 14.2313 220.069 14.8146 222.013 15.9811C223.957 17.1476 225.532 18.8196 226.737 20.997C227.943 23.1356 228.545 25.7019 228.545 28.6959C228.545 32.001 227.845 34.8979 226.446 37.3864C225.085 39.8749 223.277 41.8191 221.021 43.2189C218.766 44.5798 216.316 45.2603 213.672 45.2603C212.311 45.2603 211.048 45.0853 209.881 44.7354C208.754 44.4243 207.684 43.9577 206.673 43.3356V53.0175C206.673 53.7952 206.654 54.4756 206.615 55.0589C206.615 55.681 206.557 56.3226 206.44 56.9836C207.062 56.9447 207.665 56.9059 208.248 56.867C208.87 56.867 209.492 56.8475 210.114 56.8087V59.2H198.216ZM213.556 42.9273C215.422 42.9273 217.016 42.3635 218.338 41.2358C219.699 40.0693 220.73 38.4946 221.43 36.5115C222.168 34.4896 222.538 32.1955 222.538 29.6292C222.538 27.5294 222.227 25.527 221.605 23.6217C221.021 21.6775 220.069 20.1027 218.747 18.8973C217.463 17.6919 215.753 17.0893 213.614 17.0893C212.292 17.0893 211.009 17.4198 209.765 18.0808C208.559 18.7029 207.548 19.4611 206.732 20.3555C206.732 20.511 206.732 20.7443 206.732 21.0554C206.771 21.3275 206.79 21.833 206.79 22.5718C206.79 23.2717 206.79 24.341 206.79 25.7797C206.79 27.1795 206.771 29.0848 206.732 31.4956C206.732 33.9063 206.732 36.9587 206.732 40.6526C207.704 41.3914 208.754 41.9552 209.881 42.344C211.048 42.7329 212.273 42.9273 213.556 42.9273Z" fill="black"/>
<path d="M233.018 59.2V57.4502C234.223 57.4502 235.059 57.1392 235.526 56.517C235.992 55.9338 236.264 55.0978 236.342 54.009C236.42 52.9592 236.459 51.7344 236.459 50.3346L236.575 22.1635C236.575 21.5414 236.575 20.9193 236.575 20.2971C236.614 19.675 236.692 19.0334 236.809 18.3724C236.109 18.4113 235.409 18.4502 234.709 18.4891C234.048 18.5279 233.368 18.5668 232.668 18.6057V16.1561C234.379 16.1561 235.662 16.0783 236.517 15.9228C237.411 15.7672 238.053 15.5728 238.442 15.3395C238.87 15.1062 239.219 14.8535 239.492 14.5813H241.241C241.28 14.9701 241.319 15.4367 241.358 15.9811C241.397 16.4866 241.436 17.0698 241.475 17.7308C242.641 16.681 244.022 15.845 245.616 15.2229C247.249 14.5618 248.882 14.2313 250.515 14.2313C252.77 14.2313 254.87 14.8146 256.814 15.9811C258.758 17.1476 260.333 18.8196 261.539 20.997C262.744 23.1356 263.347 25.7019 263.347 28.6959C263.347 32.001 262.647 34.8979 261.247 37.3864C259.886 39.8749 258.078 41.8191 255.823 43.2189C253.567 44.5798 251.118 45.2603 248.474 45.2603C247.113 45.2603 245.849 45.0853 244.683 44.7354C243.555 44.4243 242.486 43.9577 241.475 43.3356V53.0175C241.475 53.7952 241.455 54.4756 241.416 55.0589C241.416 55.681 241.358 56.3226 241.241 56.9836C241.864 56.9447 242.466 56.9059 243.049 56.867C243.672 56.867 244.294 56.8475 244.916 56.8087V59.2H233.018ZM248.357 42.9273C250.223 42.9273 251.818 42.3635 253.14 41.2358C254.501 40.0693 255.531 38.4946 256.231 36.5115C256.97 34.4896 257.339 32.1955 257.339 29.6292C257.339 27.5294 257.028 25.527 256.406 23.6217C255.823 21.6775 254.87 20.1027 253.548 18.8973C252.265 17.6919 250.554 17.0893 248.415 17.0893C247.093 17.0893 245.81 17.4198 244.566 18.0808C243.361 18.7029 242.35 19.4611 241.533 20.3555C241.533 20.511 241.533 20.7443 241.533 21.0554C241.572 21.3275 241.591 21.833 241.591 22.5718C241.591 23.2717 241.591 24.341 241.591 25.7797C241.591 27.1795 241.572 29.0848 241.533 31.4956C241.533 33.9063 241.533 36.9587 241.533 40.6526C242.505 41.3914 243.555 41.9552 244.683 42.344C245.849 42.7329 247.074 42.9273 248.357 42.9273Z" fill="black"/>
<path d="M268.344 42.5773C269.549 42.5773 270.385 42.2857 270.852 41.7024C271.318 41.0803 271.591 40.2443 271.668 39.1945C271.746 38.1057 271.785 36.8615 271.785 35.4617V22.1635C271.785 21.5414 271.805 20.9582 271.843 20.4138C271.882 19.8305 271.941 19.1501 272.018 18.3724C271.318 18.4113 270.619 18.4502 269.919 18.4891C269.258 18.5279 268.577 18.5668 267.877 18.6057V16.1561C269.588 16.1561 270.91 16.0783 271.843 15.9228C272.777 15.7672 273.477 15.5728 273.943 15.3395C274.449 15.1062 274.837 14.8535 275.11 14.5813H276.801V38.1446C276.801 38.9223 276.782 39.6222 276.743 40.2443C276.743 40.8276 276.684 41.4497 276.568 42.1107C277.19 42.0718 277.793 42.0524 278.376 42.0524C278.998 42.0135 279.62 41.9746 280.242 41.9357V44.3271H268.344V42.5773ZM274.001 8.80709C273.185 8.80709 272.466 8.47658 271.843 7.81556C271.221 7.15455 270.91 6.338 270.91 5.36591C270.91 4.39383 271.221 3.57727 271.843 2.91625C272.504 2.21635 273.243 1.8664 274.06 1.8664C274.954 1.8664 275.693 2.21635 276.276 2.91625C276.898 3.57727 277.209 4.39383 277.209 5.36591C277.209 6.338 276.879 7.15455 276.218 7.81556C275.596 8.47658 274.857 8.80709 274.001 8.80709Z" fill="black"/>
<path d="M284.748 44.3271V42.5773C285.953 42.5773 286.789 42.2857 287.256 41.7024C287.722 41.0803 287.995 40.2443 288.072 39.1945C288.15 38.1057 288.189 36.8615 288.189 35.4617L288.247 22.1635C288.247 21.5414 288.247 20.9193 288.247 20.2971C288.286 19.675 288.364 19.0334 288.481 18.3724C287.781 18.4113 287.081 18.4502 286.381 18.4891C285.72 18.5279 285.039 18.5668 284.34 18.6057V16.1561C286.05 16.1561 287.334 16.0783 288.189 15.9228C289.083 15.7672 289.744 15.5728 290.172 15.3395C290.6 15.1062 290.95 14.8535 291.222 14.5813H292.913C292.952 14.8535 292.972 15.1645 292.972 15.5145C293.011 15.8644 293.049 16.2533 293.088 16.681C293.127 17.1087 293.147 17.5947 293.147 18.1391C294.002 17.4003 294.935 16.7393 295.946 16.1561C296.996 15.5728 298.085 15.1062 299.212 14.7563C300.379 14.4063 301.526 14.2313 302.654 14.2313C306.036 14.2313 308.506 15.3006 310.061 17.4392C311.616 19.5389 312.394 22.8246 312.394 27.2961V38.1446C312.394 38.9223 312.374 39.6222 312.336 40.2443C312.336 40.8276 312.277 41.4497 312.161 42.1107C312.783 42.0718 313.385 42.0524 313.969 42.0524C314.591 42.0135 315.213 41.9746 315.835 41.9357V44.3271H303.937V42.5773C305.142 42.5773 305.978 42.2857 306.445 41.7024C306.911 41.0803 307.184 40.2443 307.261 39.1945C307.339 38.1057 307.378 36.8615 307.378 35.4617V27.2961C307.339 23.9522 306.775 21.4248 305.687 19.7139C304.637 18.003 302.965 17.167 300.671 17.2059C299.271 17.2448 297.89 17.6142 296.529 18.3141C295.207 19.014 294.099 19.9083 293.205 20.997C293.244 21.3081 293.263 21.6581 293.263 22.0469C293.263 22.4357 293.263 22.844 293.263 23.2717L293.205 38.1446C293.205 38.9223 293.186 39.6222 293.147 40.2443C293.147 40.8276 293.088 41.4497 292.972 42.1107C293.594 42.0718 294.196 42.0524 294.78 42.0524C295.402 42.0135 296.024 41.9746 296.646 41.9357V44.3271H284.748Z" fill="black"/>
<path d="M320.734 16.331L319.159 15.1645C319.586 14.6202 320.034 13.8425 320.5 12.8315C320.967 11.8206 321.336 10.7124 321.608 9.50699C321.919 8.26272 321.997 7.05734 321.842 5.89084C321.569 6.00749 321.317 6.10469 321.083 6.18246C320.85 6.22134 320.617 6.24078 320.384 6.24078C319.645 6.24078 319.003 5.9686 318.459 5.42423C317.953 4.87987 317.701 4.19941 317.701 3.38286C317.701 2.29412 318.012 1.45813 318.634 0.874874C319.295 0.291624 320.053 0 320.908 0C322.269 0 323.3 0.524925 324 1.57478C324.7 2.58575 325.05 3.83002 325.05 5.30758C325.05 6.27967 324.855 7.46561 324.466 8.86542C324.116 10.2652 323.611 11.6456 322.95 13.0065C322.328 14.3285 321.589 15.4367 320.734 16.331Z" fill="black"/>
<path d="M342.825 25.2389H345.137V37.8774C345.137 39.1822 344.829 40.3473 344.214 41.3725C343.605 42.3916 342.745 43.1962 341.632 43.7865C340.52 44.3706 339.215 44.6626 337.718 44.6626C336.22 44.6626 334.916 44.3706 333.803 43.7865C332.691 43.1962 331.827 42.3916 331.212 41.3725C330.603 40.3473 330.299 39.1822 330.299 37.8774V25.2389H332.61V37.691C332.61 38.623 332.815 39.4525 333.225 40.1795C333.636 40.9003 334.22 41.4688 334.978 41.8851C335.742 42.2952 336.655 42.5003 337.718 42.5003C338.78 42.5003 339.694 42.2952 340.458 41.8851C341.222 41.4688 341.806 40.9003 342.21 40.1795C342.62 39.4525 342.825 38.623 342.825 37.691V25.2389Z" fill="black"/>
<path d="M360.192 30.0109C360.08 29.0665 359.626 28.3333 358.831 27.8113C358.036 27.2894 357.06 27.0284 355.904 27.0284C355.059 27.0284 354.32 27.1651 353.686 27.4385C353.059 27.7119 352.568 28.0878 352.213 28.5663C351.865 29.0447 351.692 29.5884 351.692 30.1973C351.692 30.7069 351.813 31.1449 352.055 31.5115C352.304 31.8719 352.62 32.1733 353.006 32.4156C353.391 32.6517 353.795 32.8474 354.217 33.0028C354.64 33.1519 355.028 33.2731 355.382 33.3663L357.321 33.8882C357.818 34.0187 358.371 34.1989 358.98 34.4288C359.595 34.6587 360.182 34.9725 360.742 35.3702C361.307 35.7616 361.773 36.2649 362.14 36.8801C362.506 37.4952 362.69 38.2502 362.69 39.1449C362.69 40.1764 362.419 41.1084 361.879 41.9411C361.344 42.7737 360.561 43.4354 359.53 43.9263C358.505 44.4172 357.259 44.6626 355.792 44.6626C354.426 44.6626 353.242 44.442 352.241 44.0009C351.247 43.5597 350.464 42.9446 349.893 42.1554C349.327 41.3663 349.007 40.4498 348.933 39.4059H351.319C351.381 40.1267 351.623 40.7232 352.046 41.1954C352.474 41.6615 353.015 42.0094 353.667 42.2393C354.326 42.463 355.034 42.5749 355.792 42.5749C356.675 42.5749 357.467 42.4319 358.169 42.1461C358.871 41.8541 359.427 41.4502 359.838 40.9345C360.248 40.4125 360.453 39.8036 360.453 39.1077C360.453 38.4739 360.276 37.9581 359.921 37.5605C359.567 37.1628 359.101 36.8397 358.523 36.5911C357.946 36.3426 357.321 36.1251 356.65 35.9387L354.301 35.2676C352.81 34.8389 351.629 34.2269 350.759 33.4315C349.89 32.6362 349.455 31.5954 349.455 30.3092C349.455 29.2404 349.744 28.3084 350.321 27.5131C350.905 26.7115 351.688 26.0901 352.67 25.649C353.658 25.2016 354.761 24.9779 355.979 24.9779C357.209 24.9779 358.303 25.1985 359.26 25.6397C360.217 26.0746 360.975 26.6711 361.534 27.4292C362.099 28.1872 362.398 29.0478 362.429 30.0109H360.192Z" fill="black"/>
<path d="M367.273 44.3271H364.85L371.859 25.2389H374.245L381.254 44.3271H378.83L373.126 28.2587H372.977L367.273 44.3271ZM368.168 36.8708H377.935V38.9212H368.168V36.8708Z" fill="black"/>
</svg>
